;TYPE=PLATED
;Layer: PTH_Through_Via
;EasyEDA Pro Client v3.2.149.88089769, 2026-08-26 15:24:51
;Gerber Generator version 0.3
M48
METRIC,LZ,0000.00000
;Hole size 1 = 0.30500 METRIC
T01C0.30500
;Hole size 2 = 0.60960 METRIC
T02C0.60960
%
G05
G90
T01
X285.369Y-179.451
X294.132Y-199.517
X294.259Y-181.737
X280.543Y-189.23
X278.003Y-149.86
X280.50972Y-149.86
X283.01644Y-149.86
X285.52316Y-149.86
X288.02988Y-149.86
X290.53659Y-149.86
X293.04331Y-149.86
X277.97584Y-151.13
X280.48256Y-151.13
X282.98928Y-151.13
X285.496Y-151.13
X288.00272Y-151.13
X290.50944Y-151.13
X293.01616Y-151.13
X277.97584Y-152.654
X280.48256Y-152.654
X282.98928Y-152.654
X285.496Y-152.654
X288.00272Y-152.654
X290.50944Y-152.654
X293.01616Y-152.654
X277.97584Y-154.178
X280.48256Y-154.178
X282.98928Y-154.178
X285.496Y-154.178
X288.00272Y-154.178
X290.50944Y-154.178
X293.01616Y-154.178
X246.98784Y-139.954
X249.49456Y-139.954
X252.00128Y-139.954
X254.508Y-139.954
X257.01472Y-139.954
X259.52144Y-139.954
X262.02816Y-139.954
X245.11Y-148.17572
X245.11Y-145.669
X245.11Y-143.16228
X245.11Y-140.65556
X263.93928Y-126.619
X266.446Y-126.619
X268.95272Y-126.619
X271.45944Y-126.619
X263.906Y-140.93672
X263.906Y-138.43
X263.906Y-135.92328
X263.906Y-133.41656
X266.319Y-136.49172
X266.319Y-133.985
X266.319Y-131.47828
X266.319Y-128.97156
X259.36728Y-164.592
X261.874Y-164.592
X264.38072Y-164.592
X266.88744Y-164.592
X259.36728Y-167.005
X261.874Y-167.005
X264.38072Y-167.005
X266.88744Y-167.005
X258.35128Y-171.577
X260.858Y-171.577
X263.36472Y-171.577
X265.87144Y-171.577
X235.87228Y-181.356
X238.379Y-181.356
X240.88572Y-181.356
X243.39244Y-181.356
X256.82728Y-180.975
X259.334Y-180.975
X261.84072Y-180.975
X264.34744Y-180.975
X235.99928Y-184.912
X238.506Y-184.912
X241.01272Y-184.912
X243.51944Y-184.912
X256.70028Y-183.896
X259.207Y-183.896
X261.71372Y-183.896
X264.22044Y-183.896
X249.33428Y-204.47
X251.841Y-204.47
X254.34772Y-204.47
X256.85444Y-204.47
X255.30328Y-206.756
X257.81Y-206.756
X260.31672Y-206.756
X262.82344Y-206.756
X257.20828Y-210.566
X259.715Y-210.566
X262.22172Y-210.566
X264.72844Y-210.566
X297.34028Y-209.677
X299.847Y-209.677
X302.35372Y-209.677
X304.86044Y-209.677
X294.03828Y-212.344
X296.545Y-212.344
X299.05172Y-212.344
X301.55844Y-212.344
X287.68828Y-216.027
X290.195Y-216.027
X292.70172Y-216.027
X295.20844Y-216.027
X278.384Y-202.53172
X278.384Y-200.025
X278.384Y-197.51828
X278.384Y-195.01156
X278.384Y-191.48272
X278.384Y-188.976
X278.384Y-186.46928
X278.384Y-183.96256
X280.67Y-183.22772
X280.67Y-180.721
X280.67Y-178.21428
X280.67Y-175.70756
X276.352Y-170.90872
X276.352Y-168.402
X276.352Y-165.89528
X276.352Y-163.38856
X309.88Y-143.22272
X309.88Y-140.716
X309.88Y-138.20928
X309.88Y-135.70256
X312.928Y-146.27072
X312.928Y-143.764
X312.928Y-141.25728
X312.928Y-138.75056
X317.246Y-150.08072
X317.246Y-147.574
X317.246Y-145.06728
X317.246Y-142.56056
X325.374Y-163.28872
X325.374Y-160.782
X325.374Y-158.27528
X325.374Y-155.76856
X324.45172Y-170.053
X321.945Y-170.053
X319.43828Y-170.053
X316.93156Y-170.053
X310.642Y-179.92572
X310.642Y-177.419
X310.642Y-174.91228
X310.642Y-172.40556
X323.94372Y-177.673
X321.437Y-177.673
X318.93028Y-177.673
X316.42356Y-177.673
X323.977Y-186.91072
X323.977Y-184.404
X323.977Y-181.89728
X323.977Y-179.39056
X304.00472Y-194.564
X301.498Y-194.564
X298.99128Y-194.564
X296.48456Y-194.564
X298.99128Y-192.659
X301.498Y-192.659
X304.00472Y-192.659
X306.51144Y-192.659
X310.007Y-194.53072
X310.007Y-192.024
X310.007Y-189.51728
X310.007Y-187.01056
X310.48172Y-201.295
X307.975Y-201.295
X305.46828Y-201.295
X302.96156Y-201.295
X298.61028Y-197.485
X301.117Y-197.485
X303.62372Y-197.485
X306.13044Y-197.485
X234.34828Y-171.958
X236.855Y-171.958
X239.36172Y-171.958
X241.86844Y-171.958
X251.841Y-163.195
X250.571Y-164.338
X250.571Y-163.18154
T02
X283.35789Y-167.74611
M30