G04 Layer: TopPasteMaskLayer*
G04 EasyEDA Pro v3.2.149.88089769, 2026-08-26 15:24:51*
G04 Gerber Generator version 0.3*
G04 Scale: 100 percent, Rotated: No, Reflected: No*
G04 Dimensions in millimeters*
G04 Leading zeros omitted, absolute positions, 4 integers and 5 decimals*
G04 Generated by one-click*
G04 Object Configs: Pad,Via,Track,Text,Image,Dimension,BoardOutline,BoardCutout,CopperFilled,SolidRegion,FPCStiffener,Line,PlaneZone,ComponentProperty,ComponentSilkscreen,TearDrop*
G04 Layer Configs: 1,2,3,4,5,6,7,8,9,10,11,13,14,56*
G04 Copper Areas: 0*
%FSLAX45Y45*%
%MOMM*%
%AMPolygonMacro1*4,1,8,2.54,3.683,2.54,5.461,4.064,5.461,4.064,-5.461,2.54,-5.461,2.54,-4.31749,-4.064,-4.31749,-4.064,3.683,2.54,3.683,0*%
%ADD10R,1.6X4.29999*%
%ADD11R,0.8X0.9*%
%ADD12R,6.19999X1.75001*%
%ADD13R,0.9X0.8*%
%ADD14R,1.8X1.62001*%
%ADD15R,5.29999X2.0*%
%ADD16R,3.49999X2.35001*%
%ADD17R,0.65001X1.0*%
%ADD18R,3.5040X1.2*%
%ADD19R,3.49999X1.2*%
%ADD20R,3.19999X1.15001*%
%ADD21PolygonMacro1*%
G75*


G04 PolygonModel Start*
G36*
G01X26410798Y-16199399D02*
G01X26405799Y-16194397D01*
G01X26405799Y-16114398D01*
G01X26410798Y-16109399D01*
G01X26490798Y-16109399D01*
G01X26495799Y-16114398D01*
G01X26495799Y-16138601D01*
G01X26458799Y-16138601D01*
G01X26458799Y-16171601D01*
G01X26495799Y-16171601D01*
G01X26495799Y-16194397D01*
G01X26490798Y-16199399D01*
G01X26410798Y-16199399D01*
G37*
G36*
G01X26649802Y-16109401D02*
G01X26654801Y-16114403D01*
G01X26654801Y-16194402D01*
G01X26649802Y-16199401D01*
G01X26569802Y-16199401D01*
G01X26564801Y-16194402D01*
G01X26564801Y-16170199D01*
G01X26601801Y-16170199D01*
G01X26601801Y-16137199D01*
G01X26564801Y-16137199D01*
G01X26564801Y-16114403D01*
G01X26569802Y-16109401D01*
G01X26649802Y-16109401D01*
G37*
G36*
G01X25647101Y-16123798D02*
G01X25652103Y-16118799D01*
G01X25732102Y-16118799D01*
G01X25737101Y-16123798D01*
G01X25737101Y-16203798D01*
G01X25732102Y-16208799D01*
G01X25707899Y-16208799D01*
G01X25707899Y-16171799D01*
G01X25674899Y-16171799D01*
G01X25674899Y-16208799D01*
G01X25652103Y-16208799D01*
G01X25647101Y-16203798D01*
G01X25647101Y-16123798D01*
G37*
G36*
G01X25737099Y-16362802D02*
G01X25732097Y-16367801D01*
G01X25652098Y-16367801D01*
G01X25647099Y-16362802D01*
G01X25647099Y-16282802D01*
G01X25652098Y-16277801D01*
G01X25676301Y-16277801D01*
G01X25676301Y-16314801D01*
G01X25709301Y-16314801D01*
G01X25709301Y-16277801D01*
G01X25732097Y-16277801D01*
G01X25737099Y-16282802D01*
G01X25737099Y-16362802D01*
G37*

G04 Pad Start*
G54D10*
G01X26212800Y-15112799D03*
G01X26212800Y-14478206D03*
G54D11*
G01X27184502Y-13614400D03*
G01X27044498Y-13614400D03*
G54D12*
G01X28581502Y-13042900D03*
G01X27552498Y-13042900D03*
G54D13*
G01X26644600Y-15220798D03*
G01X26644600Y-15360802D03*
G01X24536400Y-16414598D03*
G01X24536400Y-16554602D03*
G54D10*
G01X30975300Y-16040301D03*
G01X30975300Y-16674894D03*
G01X30975300Y-15481099D03*
G01X30975300Y-14846506D03*
G54D13*
G01X31976915Y-15556950D03*
G01X31976915Y-15416945D03*
G01X31724600Y-15551302D03*
G01X31724600Y-15411298D03*
G54D14*
G01X26708999Y-14059840D03*
G01X27138998Y-14057960D03*
G54D15*
G01X29933900Y-15468399D03*
G01X29933900Y-14808406D03*
G01X25355498Y-14508100D03*
G01X25355498Y-15168094D03*
G54D16*
G01X27076400Y-15070099D03*
G01X27076400Y-14470101D03*
G54D17*
G01X25380696Y-16460800D03*
G01X25190704Y-16460800D03*
G01X25285700Y-16660800D03*
G54D19*
G01X25082787Y-15925813D03*
G01X24548803Y-15925813D03*
G54D20*
G01X27818579Y-14650841D03*
G01X27818579Y-14480661D03*
G01X27818579Y-14140301D03*
G01X27818579Y-14310481D03*
G01X27818579Y-13970121D03*
G54D21*
G01X28820127Y-14310481D03*
G04 Pad End*

M02*

