G04 Layer: BottomSolderMaskLayer*
G04 EasyEDA Pro v3.2.149.88089769, 2026-08-26 15:24:51*
G04 Gerber Generator version 0.3*
G04 Scale: 100 percent, Rotated: No, Reflected: No*
G04 Dimensions in millimeters*
G04 Leading zeros omitted, absolute positions, 4 integers and 5 decimals*
G04 Generated by one-click*
G04 Object Configs: Pad,Via,Track,Text,Image,Dimension,BoardOutline,BoardCutout,CopperFilled,SolidRegion,FPCStiffener,Line,PlaneZone,ComponentProperty,ComponentSilkscreen,TearDrop*
G04 Layer Configs: 1,2,3,4,5,6,7,8,9,10,11,13,14,56*
G04 Copper Areas: 0*
%FSLAX45Y45*%
%MOMM*%
%AMRoundRect*1,1,$1,$2,$3*1,1,$1,$4,$5*1,1,$1,0-$2,0-$3*1,1,$1,0-$4,0-$5*20,1,$1,$2,$3,$4,$5,0*20,1,$1,$4,$5,0-$2,0-$3,0*20,1,$1,0-$2,0-$3,0-$4,0-$5,0*20,1,$1,0-$4,0-$5,$2,$3,0*4,1,4,$2,$3,$4,$5,0-$2,0-$3,0-$4,0-$5,$2,$3,0*%
%ADD10O,2.1016X4.70159*%
%ADD11O,4.70159X2.1016*%
%ADD12C,1.6764*%
%ADD13RoundRect,0.1016X-0.7874X-0.7874X-0.7874X0.7874*%
%ADD14RoundRect,0.1016X-0.762X-0.762X-0.762X0.762*%
%ADD15C,1.6256*%
%ADD16RoundRect,0.1016X-0.9X-0.9X-0.9X0.9*%
%ADD17C,1.9003*%
%ADD18C,1.9016*%
%ADD19C,1.7016*%
%ADD20O,3.10159X2.1016*%
%ADD21C,1.624*%
%ADD22C,3.29999*%
%ADD23RoundRect,0.1016X-0.7874X0.7874X0.7874X0.7874*%
%ADD24C,1.75161*%
G75*


G04 Pad Start*
G54D10*
G01X31694018Y-16338588D03*
G01X32313982Y-16338613D03*
G54D11*
G01X31993992Y-15868586D03*
G54D12*
G01X30213300Y-18961100D03*
G01X30213300Y-18707100D03*
G54D13*
G01X30213300Y-18453100D03*
G54D14*
G01X29730700Y-16268700D03*
G54D15*
G01X29984700Y-16268700D03*
G01X29730700Y-16522700D03*
G01X29984700Y-16522700D03*
G54D16*
G01X27266900Y-21145500D03*
G54D18*
G01X27266900Y-20891500D03*
G01X27266900Y-20637500D03*
G01X27266900Y-20383500D03*
G01X27266900Y-20129500D03*
G01X27266900Y-19875500D03*
G01X27266900Y-19621500D03*
G01X27266900Y-19367500D03*
G01X27266900Y-19113500D03*
G01X27266900Y-18859500D03*
G01X27266900Y-18605500D03*
G01X27266900Y-18351500D03*
G01X27266900Y-18097500D03*
G01X27266900Y-17843500D03*
G01X27266900Y-17589500D03*
G01X27266900Y-17335500D03*
G01X27266900Y-17081500D03*
G01X27266900Y-16827500D03*
G01X27266900Y-16573500D03*
G01X27266900Y-16319500D03*
G54D16*
G01X28790900Y-21145500D03*
G54D18*
G01X28790900Y-20891500D03*
G01X28790900Y-20637500D03*
G01X28790900Y-20383500D03*
G01X28790900Y-20129500D03*
G01X28790900Y-19875500D03*
G01X28790900Y-19621500D03*
G01X28790900Y-19367500D03*
G01X28790900Y-19113500D03*
G01X28790900Y-18859500D03*
G01X28790900Y-18605500D03*
G01X28790900Y-18351500D03*
G01X28790900Y-18097500D03*
G01X28790900Y-17843500D03*
G01X28790900Y-17589500D03*
G01X28790900Y-17335500D03*
G01X28790900Y-17081500D03*
G01X28790900Y-16827500D03*
G01X28790900Y-16573500D03*
G01X28790900Y-16319500D03*
G54D19*
G01X31889700Y-19367500D03*
G01X31889700Y-19113500D03*
G01X31889700Y-18859500D03*
G01X31889700Y-18605500D03*
G01X31889700Y-18351500D03*
G54D16*
G01X31889700Y-18097500D03*
G54D20*
G01X29946600Y-14211402D03*
G01X29946600Y-13741400D03*
G01X29946600Y-13271398D03*
G54D21*
G01X23922599Y-15753613D03*
G01X23922599Y-16003600D03*
G01X23922599Y-16203600D03*
G01X23922599Y-16453612D03*
G54D22*
G01X23651606Y-15446604D03*
G01X23651606Y-16760596D03*
G54D12*
G01X29997400Y-20485100D03*
G01X30251400Y-20485100D03*
G54D23*
G01X30505400Y-20485100D03*
G54D24*
G01X28308300Y-21691473D03*
G01X28054300Y-21691473D03*
G01X27800300Y-21691473D03*
G01X27546300Y-21691727D03*
G04 Pad End*

M02*

