G04 Layer: TopSolderMaskLayer*
G04 EasyEDA Pro v3.2.149.88089769, 2026-08-26 15:24:51*
G04 Gerber Generator version 0.3*
G04 Scale: 100 percent, Rotated: No, Reflected: No*
G04 Dimensions in millimeters*
G04 Leading zeros omitted, absolute positions, 4 integers and 5 decimals*
G04 Generated by one-click*
G04 Object Configs: Pad,Via,Track,Text,Image,Dimension,BoardOutline,BoardCutout,CopperFilled,SolidRegion,FPCStiffener,Line,PlaneZone,ComponentProperty,ComponentSilkscreen,TearDrop*
G04 Layer Configs: 1,2,3,4,5,6,7,8,9,10,11,13,14,56*
G04 Copper Areas: 0*
%FSLAX45Y45*%
%MOMM*%
%AMRoundRect*1,1,$1,$2,$3*1,1,$1,$4,$5*1,1,$1,0-$2,0-$3*1,1,$1,0-$4,0-$5*20,1,$1,$2,$3,$4,$5,0*20,1,$1,$4,$5,0-$2,0-$3,0*20,1,$1,0-$2,0-$3,0-$4,0-$5,0*20,1,$1,0-$4,0-$5,$2,$3,0*4,1,4,$2,$3,$4,$5,0-$2,0-$3,0-$4,0-$5,$2,$3,0*%
%ADD10RoundRect,0.1016X-0.8X-2.15X-0.8X2.15*%
%ADD11RoundRect,0.1016X-0.4X0.45X0.4X0.45*%
%ADD12RoundRect,0.1016X-3.09999X0.875X3.09999X0.875*%
%ADD13RoundRect,0.1016X-0.45X-0.4X-0.45X0.4*%
%ADD14RoundRect,0.1016X-0.9X0.81001X0.9X0.81001*%
%ADD15O,2.1016X4.70159*%
%ADD16O,4.70159X2.1016*%
%ADD17C,1.6764*%
%ADD18RoundRect,0.1016X-0.7874X-0.7874X-0.7874X0.7874*%
%ADD19RoundRect,0.1016X-0.7874X-0.7874X-0.7874X0.7874*%
%ADD20RoundRect,0.1016X-2.64999X-1.0X-2.64999X1.0*%
%ADD21RoundRect,0.1016X-0.762X-0.762X-0.762X0.762*%
%ADD22C,1.6256*%
%ADD23RoundRect,0.1016X-0.9X-0.9X-0.9X0.9*%
%ADD24C,1.9016*%
%ADD25C,1.7016*%
%ADD26RoundRect,0.1016X-1.75X-1.175X-1.75X1.175*%
%ADD27RoundRect,0.1016X-0.32501X-0.5X-0.32501X0.5*%
%ADD28RoundRect,0.1016X-0.40324X0.432X0.40324X0.432*%
%ADD29RoundRect,0.1016X-0.432X-0.40324X-0.432X0.40324*%
%ADD30O,3.10159X2.1016*%
%ADD31RoundRect,0.1016X-1.75X0.6X1.75X0.6*%
%ADD32RoundRect,0.1016X-1.6X0.57501X1.6X0.57501*%
%ADD33C,1.624*%
%ADD34C,3.29999*%
%ADD35RoundRect,0.1016X-0.7874X0.7874X0.7874X0.7874*%
%ADD36C,1.75161*%
G75*


G04 Pad Start*
G54D10*
G01X26212800Y-15112799D03*
G01X26212800Y-14478206D03*
G54D11*
G01X27184502Y-13614400D03*
G01X27044498Y-13614400D03*
G54D12*
G01X28581502Y-13042900D03*
G01X27552498Y-13042900D03*
G54D13*
G01X26644600Y-15220798D03*
G01X26644600Y-15360802D03*
G01X24536400Y-16414598D03*
G01X24536400Y-16554602D03*
G54D10*
G01X30975300Y-16040301D03*
G01X30975300Y-16674894D03*
G01X30975300Y-15481099D03*
G01X30975300Y-14846506D03*
G54D13*
G01X31976915Y-15556950D03*
G01X31976915Y-15416945D03*
G01X31724600Y-15551302D03*
G01X31724600Y-15411298D03*
G54D14*
G01X26708999Y-14059840D03*
G01X27138998Y-14057960D03*
G54D15*
G01X31694018Y-16338588D03*
G01X32313982Y-16338613D03*
G54D16*
G01X31993992Y-15868586D03*
G54D17*
G01X30213300Y-18961100D03*
G01X30213300Y-18707100D03*
G54D19*
G01X30213300Y-18453100D03*
G54D20*
G01X29933900Y-15468399D03*
G01X29933900Y-14808406D03*
G01X25355498Y-14508100D03*
G01X25355498Y-15168094D03*
G54D21*
G01X29730700Y-16268700D03*
G54D22*
G01X29984700Y-16268700D03*
G01X29730700Y-16522700D03*
G01X29984700Y-16522700D03*
G54D23*
G01X27266900Y-21145500D03*
G54D24*
G01X27266900Y-20891500D03*
G01X27266900Y-20637500D03*
G01X27266900Y-20383500D03*
G01X27266900Y-20129500D03*
G01X27266900Y-19875500D03*
G01X27266900Y-19621500D03*
G01X27266900Y-19367500D03*
G01X27266900Y-19113500D03*
G01X27266900Y-18859500D03*
G01X27266900Y-18605500D03*
G01X27266900Y-18351500D03*
G01X27266900Y-18097500D03*
G01X27266900Y-17843500D03*
G01X27266900Y-17589500D03*
G01X27266900Y-17335500D03*
G01X27266900Y-17081500D03*
G01X27266900Y-16827500D03*
G01X27266900Y-16573500D03*
G01X27266900Y-16319500D03*
G54D23*
G01X28790900Y-21145500D03*
G54D24*
G01X28790900Y-20891500D03*
G01X28790900Y-20637500D03*
G01X28790900Y-20383500D03*
G01X28790900Y-20129500D03*
G01X28790900Y-19875500D03*
G01X28790900Y-19621500D03*
G01X28790900Y-19367500D03*
G01X28790900Y-19113500D03*
G01X28790900Y-18859500D03*
G01X28790900Y-18605500D03*
G01X28790900Y-18351500D03*
G01X28790900Y-18097500D03*
G01X28790900Y-17843500D03*
G01X28790900Y-17589500D03*
G01X28790900Y-17335500D03*
G01X28790900Y-17081500D03*
G01X28790900Y-16827500D03*
G01X28790900Y-16573500D03*
G01X28790900Y-16319500D03*
G54D25*
G01X31889700Y-19367500D03*
G01X31889700Y-19113500D03*
G01X31889700Y-18859500D03*
G01X31889700Y-18605500D03*
G01X31889700Y-18351500D03*
G54D23*
G01X31889700Y-18097500D03*
G54D26*
G01X27076400Y-15070099D03*
G01X27076400Y-14470101D03*
G54D27*
G01X25380696Y-16460800D03*
G01X25190704Y-16460800D03*
G01X25285700Y-16660800D03*
G54D28*
G01X26454964Y-16154400D03*
G01X26605636Y-16154400D03*
G54D29*
G01X25692100Y-16167964D03*
G01X25692100Y-16318636D03*
G54D30*
G01X29946600Y-14211402D03*
G01X29946600Y-13741400D03*
G01X29946600Y-13271398D03*
G54D31*
G01X25082787Y-15925813D03*
G01X24548803Y-15925813D03*
G54D32*
G01X27818579Y-14650841D03*
G01X27818579Y-14480661D03*
G01X27818579Y-14140301D03*
G01X27818579Y-14310481D03*
G01X27818579Y-13970121D03*
G36*
G01X28408726Y-14742230D02*
G01X28408726Y-13942181D01*
G02X28413727Y-13937179I5001J0D01*
G01X28413727Y-13937179D01*
G01X29069126Y-13937179D01*
G01X29069126Y-13764381D01*
G02X29074127Y-13759379I5001J0D01*
G01X29074127Y-13759379D01*
G01X29226527Y-13759379D01*
G01X29226527Y-13759379D01*
G02X29231528Y-13764381I0J-5001D01*
G01X29231528Y-14856581D01*
G02X29226527Y-14861582I-5001J0D01*
G01X29226527Y-14861582D01*
G01X29074127Y-14861582D01*
G01X29074127Y-14861582D01*
G02X29069126Y-14856581I0J5001D01*
G01X29069126Y-14747231D01*
G01X28413727Y-14747231D01*
G01X28413727Y-14747231D01*
G02X28408726Y-14742230I0J5001D01*
G37*
G54D33*
G01X23922599Y-15753613D03*
G01X23922599Y-16003600D03*
G01X23922599Y-16203600D03*
G01X23922599Y-16453612D03*
G54D34*
G01X23651606Y-15446604D03*
G01X23651606Y-16760596D03*
G54D17*
G01X29997400Y-20485100D03*
G01X30251400Y-20485100D03*
G54D35*
G01X30505400Y-20485100D03*
G54D36*
G01X28308300Y-21691473D03*
G01X28054300Y-21691473D03*
G01X27800300Y-21691473D03*
G01X27546300Y-21691727D03*
G04 Pad End*

M02*

